<?xml version="1.0" encoding="UTF-8"?>
<svg width="120px" height="41px" viewBox="0 0 120 41" version="1.1" xmlns="http://www.w3.org/2000/svg" xmlns:xlink="http://www.w3.org/1999/xlink">
    <!-- Generator: Sketch 42 (36781) - http://www.bohemiancoding.com/sketch -->
    <title>apple</title>
    <desc>Created with Sketch.</desc>
    <defs></defs>
    <g id="ui" stroke="none" stroke-width="1" fill="none" fill-rule="evenodd">
        <g id="A4" transform="translate(-31.000000, -762.000000)">
            <g id="apple" transform="translate(31.000000, 762.000000)">
                <g id="apple-Logo" transform="translate(10.000000, 7.060519)" fill="#FFFFFF">
                    <g id="Group">
                        <path d="M17.3229658,6.80249313 C13.9007466,8.03034314 14.6822671,13.9621172 17.9394041,14.7778299 C16.6685548,16.7294417 15.8478288,19.8520206 13.1311849,20.0556263 C11.7784726,20.1570773 10.2381164,19.0241103 8.5695411,19.2346357 C7.49928082,19.3695128 6.50755479,20.0852992 5.61063699,20.0556263 C3.70633562,19.9926446 2.40207534,18.0130018 1.54214384,16.5370954 C-0.755321918,12.5941123 -1.04862329,5.33995711 4.62433562,4.69137457 C6.79493836,4.44320086 7.40484247,5.68453857 9.67913014,5.51236512 C10.9165685,5.41865492 12.2695274,4.53081228 13.870911,4.69137457 C15.4365411,4.84841834 16.319774,5.54743315 17.3229658,6.80249313" id="Fill-3"></path>
                        <path d="M12.8846096,0 C13.0668288,2.67854031 11.4743219,4.67659674 8.5695411,4.80865894 C8.64265068,1.90692648 10.3024726,0.514761075 12.8846096,0" id="Fill-1"></path>
                    </g>
                </g>
                <path d="M0,5.0079364 C0,2.2421295 2.2373461,0 5.00347316,0 L114.996527,0 C117.759869,0 120,2.24450201 120,4.99334415 L120,11.6493071 C120,14.407055 120,18.872588 120,21.6405206 L120,35.3479521 C120,38.108199 117.762654,40.3458213 114.996527,40.3458213 L5.00347316,40.3458213 C2.24013124,40.3458213 0,38.1047149 0,35.3378849 L0,5.0079364 Z" id="app-store-box" fill="#E91E63"></path>
                <g id="logo-apple" transform="translate(10.000000, 6.051873)" fill="#FFFFFF">
                    <path d="M17.1794795,0 C17.4224384,3.74995644 15.2990959,6.54723544 11.4260548,6.73212251 C11.5235342,2.66969707 13.7366301,0.720665505 17.1794795,0" id="Fill-1"></path>
                    <path d="M23.9192055,20.6889619 C22.2247397,23.4212184 21.1304384,27.7928289 17.5082466,28.0778768 C15.7046301,28.2199082 13.6508219,26.6337544 11.4260548,26.92849 C9.9990411,27.1173179 8.67673973,28.1194189 7.48084932,28.0778768 C4.94178082,27.9897024 3.20276712,25.2182025 2.05619178,23.1519335 C-1.00709589,17.6317573 -1.39816438,7.47593995 6.16578082,6.5679244 C9.05991781,6.2204812 9.87312329,7.958354 12.9055068,7.71731117 C14.5554247,7.58611688 16.3593699,6.34313719 18.4945479,6.5679244 C20.5820548,6.78778567 21.7596986,7.76640641 23.0972877,9.52349038 C18.5343288,11.2424804 19.5763562,19.546964 23.9192055,20.6889619 Z" id="Fill-3"></path>
                </g>
                <text id="App-Store" font-family="NotoSans-Bold, Noto Sans" font-size="15" font-weight="bold" line-spacing="15" letter-spacing="-0.100000001" fill="#FFFFFF">
                    <tspan x="39" y="33.1469741">App Stor</tspan>
                    <tspan x="102.155078" y="33.1469741">e</tspan>
                </text>
                <text id="Download-on-the" font-family="NotoSans, Noto Sans" font-size="8" font-weight="normal" fill="#FFFFFF">
                    <tspan x="39" y="16.0605187">Download on the</tspan>
                </text>
            </g>
        </g>
    </g>
</svg>