<?xml version="1.0" encoding="UTF-8"?>
<svg width="120px" height="41px" viewBox="0 0 120 41" version="1.1" xmlns="http://www.w3.org/2000/svg" xmlns:xlink="http://www.w3.org/1999/xlink">
    <!-- Generator: Sketch 42 (36781) - http://www.bohemiancoding.com/sketch -->
    <title>google</title>
    <desc>Created with Sketch.</desc>
    <defs></defs>
    <g id="ui" stroke="none" stroke-width="1" fill="none" fill-rule="evenodd">
        <g id="A4" transform="translate(-161.000000, -762.000000)">
            <g id="google" transform="translate(161.000000, 762.000000)">
                <path d="M-2.84217094e-14,5.0079364 C-2.84217094e-14,2.2421295 2.2373461,0 5.00347316,0 L114.996527,0 C117.759869,0 120,2.24450201 120,4.99334415 L120,11.6493071 C120,14.407055 120,18.872588 120,21.6405206 L120,35.3479521 C120,38.108199 117.762654,40.3458213 114.996527,40.3458213 L5.00347316,40.3458213 C2.24013124,40.3458213 -2.84217094e-14,38.1047149 -2.84217094e-14,35.3378849 L-2.84217094e-14,5.0079364 Z" id="google-play-box" fill="#E91E63"></path>
                <g id="logo-google" transform="translate(10.000000, 10.086455)" fill="#FEFEFE">
                    <path d="M0.133020408,0.249621424 C0.0840408163,0.205593246 -4.08163266e-05,0.236779872 -4.08163266e-05,0.299336575 L-4.08163266e-05,9.91123819 L-4.08163266e-05,19.4809461 C-4.08163266e-05,19.5433194 0.0840408163,19.574506 0.133020408,19.5304778 L10.8024082,9.93948961 C10.8330204,9.91215545 10.8330204,9.86794382 10.8024082,9.84042621 L0.133020408,0.249621424 Z" id="Fill-1"></path>
                    <path d="M14.2276122,6.86065415 C14.2396531,6.84983056 14.237,6.83203584 14.2223061,6.82433091 L10.0849592,4.67722342 L1.43332653,0.186899616 C1.40740816,0.173324261 1.38108163,0.204143985 1.40230612,0.223039412 L11.4888367,9.28990888 C11.4988367,9.29889796 11.5151633,9.29889796 11.5251633,9.28990888 L14.2276122,6.86065415 Z" id="Fill-4"></path>
                    <path d="M1.26483673,19.6805222 C1.24769388,19.6959321 1.26891837,19.7210648 1.29014286,19.7098743 L10.0850408,15.1450695 L14.2574898,12.9798004 C14.2695306,12.9733796 14.2715714,12.958887 14.2619796,12.9500814 L11.5217755,10.4870717 C11.5136122,10.4797337 11.5003469,10.4797337 11.4921837,10.4870717 L1.26483673,19.6805222 Z" id="Fill-6"></path>
                    <path d="M19.7393265,10.1350481 C19.9309592,10.0356178 19.9309592,9.78685859 19.7393265,9.68742829 L15.2656531,7.36585915 C15.153,7.30752181 15.010551,7.32421583 14.9187143,7.40695212 L12.3595306,9.70742442 C12.2472857,9.80813888 12.2472857,9.97177694 12.3595306,10.0726748 L14.9487143,12.399931 C15.040551,12.4826672 15.1827959,12.4993613 15.295449,12.4410239 L19.7393265,10.1350481 Z" id="Fill-8"></path>
                </g>
                <text id="Google-Play" font-family="NotoSans-Bold, Noto Sans" font-size="14" font-weight="bold" fill="#FFFFFF">
                    <tspan x="34" y="33.1383285">Google Play</tspan>
                </text>
                <text id="GET-IT-ON" font-family="NotoSans, Noto Sans" font-size="8" font-weight="normal" fill="#FFFFFF">
                    <tspan x="35" y="16.0605187">GET IT ON</tspan>
                </text>
            </g>
        </g>
    </g>
</svg>
