<?xml version="1.0" encoding="UTF-8"?>
<svg width="52px" height="52px" viewBox="0 0 52 52" version="1.1" xmlns="http://www.w3.org/2000/svg" xmlns:xlink="http://www.w3.org/1999/xlink">
    <!-- Generator: Sketch 42 (36781) - http://www.bohemiancoding.com/sketch -->
    <title>인스타그램</title>
    <desc>Created with Sketch.</desc>
    <defs>
        <polygon id="path-1" points="8.36690176e-21 0 8.36690176e-21 28 29 28 29 0 0 0"></polygon>
    </defs>
    <g id="web" stroke="none" stroke-width="1" fill="none" fill-rule="evenodd">
        <g id="Desktop" transform="translate(-1049.000000, -2249.000000)">
            <g id="footer" transform="translate(0.000000, 2200.000000)">
                <g id="인스타그램" transform="translate(1050.000000, 50.000000)">
                    <g id="인스타그램-1" transform="translate(11.000000, 11.000000)">
                        <g id="Group-3">
                            <mask id="mask-2" fill="white">
                                <use xlink:href="#path-1"></use>
                            </mask>
                            <g id="Clip-2"></g>
                            <path d="M27,20.5983325 C27,23.5814034 24.4762882,26 21.3633345,26 L8.63611752,26 C5.52379011,26 3,23.5814034 3,20.5983325 L3,8.40166747 C3,5.41859661 5.52379011,3 8.63611752,3 L21.3633345,3 C24.4762882,3 27,5.41859661 27,8.40166747 L27,20.5983325 Z M20.6293425,0 L8.37065747,0 C3.74796229,0 0,3.61860208 0,8.08200412 L0,19.918592 C0,24.381845 3.74796229,28 8.37065747,28 L20.6293425,28 C25.2519605,28 29,24.381845 29,19.918592 L29,8.08200412 C29,3.61860208 25.2519605,0 20.6293425,0 L20.6293425,0 Z" id="Fill-1" fill="#FEFEFE" mask="url(#mask-2)"></path>
                        </g>
                        <path d="M15.0002373,18 C12.2385533,18 10,15.9852935 10,13.5001068 C10,11.0147065 12.2385533,9 15.0002373,9 C17.7609721,9 20,11.0147065 20,13.5001068 C20,15.9852935 17.7609721,18 15.0002373,18 M14.5005,7 C10.3577176,7 7,10.1341805 7,14.0001436 C7,17.8661785 10.3577176,21 14.5005,21 C18.6423593,21 22,17.8661785 22,14.0001436 C22,10.1341805 18.6423593,7 14.5005,7" id="Fill-4" fill="#FEFEFE"></path>
                        <path d="M23.0003522,5 C21.8950125,5 21,5.67131158 21,6.50026417 C21,7.32835821 21.8950125,8 23.0003522,8 C24.1037549,8 25,7.32835821 25,6.50026417 C25,5.67131158 24.1037549,5 23.0003522,5" id="Fill-6" fill="#FEFEFE"></path>
                    </g>
                    <circle id="Oval-Copy" stroke="#FFFFFF" stroke-width="1.5" cx="25" cy="25" r="25"></circle>
                </g>
            </g>
        </g>
    </g>
</svg>