<?xml version="1.0" encoding="UTF-8"?>
<svg width="97px" height="99px" viewBox="0 0 97 99" version="1.1" xmlns="http://www.w3.org/2000/svg" xmlns:xlink="http://www.w3.org/1999/xlink">
    <!-- Generator: Sketch 42 (36781) - http://www.bohemiancoding.com/sketch -->
    <title>logo-google</title>
    <desc>Created with Sketch.</desc>
    <defs>
        <polygon id="path-1" points="0.154659617 39.1055299 76.9022913 39.1055299 76.9022913 0.377395902 0.154659617 0.377395902 0.154659617 39.1055299"></polygon>
        <polygon id="path-3" points="47.1050892 45.7568848 47.1050892 0.275501212 5.50782109e-05 0.275501212 5.50782109e-05 45.7568848 47.1050892 45.7568848"></polygon>
        <polygon id="path-5" points="0 0.213758537 0 43.8505728 20.9372108 43.8505728 20.9372108 0.213758537 2.9857958e-20 0.213758537"></polygon>
    </defs>
    <g id="ui" stroke="none" stroke-width="1" fill="none" fill-rule="evenodd">
        <g id="A4" transform="translate(-450.000000, -708.000000)">
            <g id="logo-google" transform="translate(450.000000, 708.000000)">
                <g id="Group-3" transform="translate(4.957039, 58.933686)">
                    <mask id="mask-2" fill="white">
                        <use xlink:href="#path-1"></use>
                    </mask>
                    <g id="Clip-2"></g>
                    <path d="M0.154659617,11.9052655 C8.18230888,28.0277594 24.8285966,39.10564 44.0624587,39.10564 C56.6951972,39.10564 68.2109495,34.3270544 76.9022913,26.4795109 L76.9011897,26.4784093 L61.1554307,14.6228244 C56.311302,18.003525 50.4184842,19.9868914 44.0624587,19.9868914 C31.1653448,19.9868914 20.1750386,11.8209958 15.9797312,0.377395902 L0.157413527,11.9019608 L0.154659617,11.9052655 Z" id="Fill-1" fill="#35A750" mask="url(#mask-2)"></path>
                </g>
                <g id="Group-6" transform="translate(49.019608, 39.656312)">
                    <mask id="mask-4" fill="white">
                        <use xlink:href="#path-3"></use>
                    </mask>
                    <g id="Clip-5"></g>
                    <path d="M32.8387861,45.7557832 L17.0930271,33.9001983 C22.2654219,30.2903723 26.2420687,25.0871337 28.3130095,19.002093 L28.3124587,19.002093 L5.50782109e-05,19.002093 L5.50782109e-05,0.275501212 L46.2657524,0.282110597 C46.8170853,3.22493941 47.1051443,6.26029963 47.1051443,9.36340604 C47.1051443,23.8038114 42.7754461,36.7862965 32.8398876,45.7568848 L32.8387861,45.7557832 Z" id="Fill-4" fill="#4086F9" mask="url(#mask-4)"></path>
                </g>
                <g id="Group-9" transform="translate(0.000000, 26.988323)">
                    <mask id="mask-6" fill="white">
                        <use xlink:href="#path-5"></use>
                    </mask>
                    <g id="Clip-8"></g>
                    <path d="M5.11434237,0.214860101 L20.9372108,11.7399758 C19.7607403,14.9482816 19.1185283,18.4149042 19.1185283,22.0313395 C19.1185283,25.6477748 19.7607403,29.1138467 20.9372108,32.3227032 L5.11434237,43.8472681 L5.11158846,43.8505728 C1.83994272,37.2791915 -0.000220312844,29.8700705 -0.000220312844,22.0313395 C-0.000220312844,14.1926085 1.83994272,6.78403833 5.11103767,0.213758537 L5.11434237,0.214860101 Z" id="Fill-7" fill="#FABC05" mask="url(#mask-6)"></path>
                </g>
                <path d="M68.3147169,26.1766909 C63.107072,21.7731879 56.37321,19.1189689 49.019718,19.1189689 C36.1220533,19.1189689 25.1317471,27.2848645 20.9369905,38.7284644 L5.11412205,27.2033488 L5.11081736,27.2016964 C13.1379158,11.0781009 29.7853051,0.000220312844 49.019718,0.000220312844 C61.6519057,0.000220312844 73.1687596,4.77825512 81.8601013,12.6263494 L68.3147169,26.1766909 Z" id="Fill-10" fill="#EF4234"></path>
            </g>
        </g>
    </g>
</svg>