<?xml version="1.0" encoding="UTF-8"?>
<svg width="100px" height="100px" viewBox="0 0 100 100" version="1.1" xmlns="http://www.w3.org/2000/svg" xmlns:xlink="http://www.w3.org/1999/xlink">
    <!-- Generator: Sketch 42 (36781) - http://www.bohemiancoding.com/sketch -->
    <title>logo-facebook</title>
    <desc>Created with Sketch.</desc>
    <defs></defs>
    <g id="ui" stroke="none" stroke-width="1" fill="none" fill-rule="evenodd">
        <g id="A4" transform="translate(-323.000000, -708.000000)" fill="#0D47A1">
            <g id="logo-facebook" transform="translate(323.000000, 708.000000)">
                <path d="M75.8308034,-0.000126849894 L24.0568076,-0.000126849894 C10.7656871,-0.000126849894 -6.34249482e-05,10.7706977 -6.34249482e-05,24.0565328 L-6.34249482e-05,75.835814 C-6.34249482e-05,89.1163636 10.7656871,99.8897252 24.0568076,99.8897252 L50.9872516,99.8897252 L50.9872516,59.8362368 L42.7039535,59.8362368 L42.7039535,46.0305285 L50.9872516,46.0305285 L50.9872516,37.7468076 C50.9872516,26.4848626 55.6565962,19.7886681 68.9426427,19.7886681 L79.9963425,19.7886681 L79.9963425,33.5945877 L73.0889429,33.5945877 C67.91537,33.5945877 67.569704,35.5210148 67.569704,39.1229175 L67.554482,46.0305285 L80.0792178,46.0305285 L78.6143129,59.8362368 L67.554482,59.8362368 L67.554482,99.8897252 L75.8308034,99.8897252 C89.1191755,99.8897252 99.887463,89.1163636 99.887463,75.835814 L99.887463,24.0565328 C99.887463,10.7706977 89.1191755,-0.000126849894 75.8308034,-0.000126849894" id="Fill-1"></path>
            </g>
        </g>
    </g>
</svg>