<?xml version="1.0" encoding="UTF-8"?>
<svg width="138px" height="30px" viewBox="0 0 138 30" version="1.1" xmlns="http://www.w3.org/2000/svg" xmlns:xlink="http://www.w3.org/1999/xlink">
    <!-- Generator: Sketch 42 (36781) - http://www.bohemiancoding.com/sketch -->
    <title>Group 2</title>
    <desc>Created with Sketch.</desc>
    <defs></defs>
    <g id="ui" stroke="none" stroke-width="1" fill="none" fill-rule="evenodd">
        <g id="A4" transform="translate(-19.000000, -121.000000)">
            <g id="logo" transform="translate(19.000000, 27.000000)">
                <g id="Group-2" transform="translate(0.000000, 94.000000)">
                    <g id="Record" transform="translate(35.777778, 2.044444)" fill="#231815">
                        <path d="M10.5925772,11.9489836 C12.0669612,11.9489836 13.2330601,11.6472866 14.0914019,11.0428416 C14.9502715,10.4394478 15.3794424,9.35039554 15.3794424,7.77568484 C15.3794424,6.08271316 14.7792366,4.92901156 13.5788251,4.31405445 C12.9358606,3.99080776 12.0775189,3.82892161 11.003272,3.82892161 L3.32517822,3.82892161 L3.32517822,11.9489836 L10.5925772,11.9489836 Z M0.0924077573,1.06319141 L10.9404537,1.06319141 C12.726818,1.06319141 14.1996184,1.3275704 15.3588548,1.8558028 C17.5601371,2.86969363 18.6613062,4.74031959 18.6613062,7.46820628 C18.6613062,8.89206853 18.3662182,10.0562822 17.7755144,10.9624241 C17.1853385,11.8680405 16.3591978,12.5960025 15.298148,13.1457847 C16.2293379,13.5236943 16.9308977,14.0193392 17.4017715,14.6337707 C17.8731732,15.2487278 18.1360602,16.2463249 18.1899045,17.626562 L18.3033999,20.8133013 C18.3361288,21.718392 18.4121443,22.3927424 18.5314464,22.8347757 C18.7262361,23.5895436 19.0725289,24.075202 19.5708528,24.2906998 L19.5708528,24.8247139 L15.606961,24.8247139 C15.4982166,24.6197282 15.4116434,24.3553492 15.3472414,24.0321025 C15.2823114,23.7088558 15.2279392,23.082861 15.1846526,22.1551693 L14.989335,18.1926379 C14.9159589,16.639477 14.3532331,15.5993059 13.3006295,15.0705479 C12.7009516,14.7798887 11.7586761,14.6337707 10.4753866,14.6337707 L3.32517822,14.6337707 L3.32517822,24.8247139 L0.0924077573,24.8247139 L0.0924077573,1.06319141 Z" id="Fill-1"></path>
                        <path d="M35.1338131,14.779731 C35.0155668,13.5177549 34.7421221,12.5096457 34.3118955,11.7548779 C33.5174279,10.353091 32.1908518,9.65193477 30.3332229,9.65193477 C29.0018958,9.65193477 27.8848902,10.1349652 26.982734,11.0999748 C26.0805778,12.0644588 25.6028414,13.2912194 25.5489971,14.779731 L35.1338131,14.779731 Z M34.0870163,7.97788484 C35.2383345,8.55499844 36.1151522,9.30188226 36.7174695,10.2180107 C37.2997271,11.0915651 37.6866672,12.110712 37.880929,13.2749257 C38.0530197,14.0738444 38.139065,15.3458069 38.139065,17.0923903 L25.4840672,17.0923903 C25.5379115,18.8547417 25.9512458,20.2691431 26.7251259,21.3340175 C27.4990059,22.3994176 28.6973059,22.9318548 30.3194979,22.9318548 C31.835057,22.9318548 33.0433868,22.4278002 33.9465988,21.4207423 C34.4517851,20.8357446 34.8091636,20.1587662 35.0197899,19.3892814 L37.8951819,19.3892814 C37.8196943,20.0257883 37.5678929,20.7348286 37.1397778,21.5164023 C36.7121906,22.2985016 36.2344543,22.9371109 35.7081525,23.4332814 C34.8265838,24.2963238 33.7359725,24.8776422 32.4357906,25.1803903 C31.7363424,25.3527886 30.9466258,25.4389877 30.065585,25.4389877 C27.9128681,25.4389877 26.088496,24.654786 24.5924687,23.0853313 C23.0964413,21.5164023 22.3489555,19.3199016 22.3489555,16.4942525 C22.3489555,13.7122285 23.1022481,11.453181 24.6088331,9.71658411 C26.1159461,7.98051287 28.0854867,7.11274005 30.5185107,7.11274005 C31.7453165,7.11274005 32.9346424,7.40077124 34.0870163,7.97788484 L34.0870163,7.97788484 Z" id="Fill-3"></path>
                        <path d="M53.3363063,8.42296663 C54.5657515,9.37168252 55.3047911,11.0057865 55.5544809,13.3237018 L52.7118178,13.3237018 C52.5381435,12.2561993 52.1427573,11.3695047 51.5251313,10.6630925 C50.9080332,9.95668018 49.9171923,9.60347405 48.5526084,9.60347405 C46.6891728,9.60347405 45.3578457,10.5080392 44.5559877,12.317695 C44.0360205,13.4918952 43.7763009,14.9404608 43.7763009,16.663392 C43.7763009,18.3973608 44.144237,19.8569641 44.8811651,21.0416764 C45.6170374,22.2263886 46.7762739,22.8187448 48.3572908,22.8187448 C49.5698436,22.8187448 50.5316509,22.4508217 51.2406011,21.7149756 C51.9500791,20.9796551 52.4404847,19.9725971 52.7118178,18.6943273 L55.5544809,18.6943273 C55.2287756,20.9906928 54.4168878,22.6705243 53.1172338,23.7322452 C51.8181077,24.7944916 50.1552686,25.325352 48.1303,25.325352 C45.8561695,25.325352 44.0423551,24.4980507 42.6878011,22.8429226 C41.3337749,21.1877944 40.6570258,19.1205924 40.6570258,16.6397398 C40.6570258,13.5991185 41.3992327,11.2317964 42.8836466,9.53882471 C44.3659489,7.84585303 46.2557788,6.99962999 48.5526084,6.99962999 C50.512647,6.99962999 52.107389,7.47425073 53.3363063,8.42296663" id="Fill-5"></path>
                        <path d="M69.2690504,20.7428177 C69.9811678,19.28374 70.3374905,17.6596225 70.3374905,15.872042 C70.3374905,14.2563342 70.0804103,12.9423233 69.565722,11.9300092 C68.7522505,10.3363768 67.3496589,9.53903495 65.3574192,9.53903495 C63.5900588,9.53903495 62.3051856,10.2175902 61.5027997,11.5747007 C60.6993581,12.9318112 60.2971093,14.5685432 60.2971093,16.4859479 C60.2971093,18.3276657 60.6993581,19.8624304 61.5027997,21.0902422 C62.3051856,22.318054 63.5800289,22.93196 65.3252182,22.93196 C67.2419703,22.93196 68.5569329,22.2018955 69.2690504,20.7428177 M71.0844484,9.22945397 C72.6227066,10.7163887 73.3918357,12.9034285 73.3918357,15.7905734 C73.3918357,18.5815326 72.7135029,20.8868333 71.3589489,22.7080525 C70.0038669,24.528746 67.9012992,25.4390928 65.0517736,25.4390928 C62.6747054,25.4390928 60.7875149,24.6333413 59.3896743,23.0228895 C57.9918336,21.4119121 57.2929133,19.2495757 57.2929133,16.5343035 C57.2929133,13.6250833 58.0287856,11.3087449 59.5021139,9.58476253 C60.97597,7.86130579 62.9550126,6.99931462 65.4387136,6.99931462 C67.6642786,6.99931462 69.5461902,7.74304481 71.0844484,9.22945397" id="Fill-7"></path>
                        <path d="M77.0625399,7.50058351 L79.8402731,7.50058351 L79.8402731,10.4928492 C80.0677918,9.91047956 80.6257667,9.20196487 81.5141979,8.36625391 C82.4021012,7.53054296 83.4251432,7.11268749 84.5843796,7.11268749 C84.6387518,7.11268749 84.7306039,7.11794353 84.8599358,7.12845562 C84.9903236,7.13949331 85.2120354,7.16104309 85.5266552,7.19363056 L85.5266552,10.2668393 C85.3529809,10.2342519 85.1935595,10.2132277 85.0468073,10.20219 C84.9011109,10.1916779 84.7411616,10.1858963 84.5674873,10.1858963 C83.0952148,10.1858963 81.9629005,10.6573634 81.172656,11.6013488 C80.3818836,12.5453343 79.9870253,13.6312329 79.9870253,14.8600959 L79.9870253,24.8245036 L77.0625399,24.8245036 L77.0625399,7.50058351 Z" id="Fill-9"></path>
                        <path d="M91.0930488,21.02307 C91.8795981,22.274534 93.1407165,22.8994776 94.875348,22.8994776 C96.2225117,22.8994776 97.3289596,22.3202616 98.1968033,21.1607783 C99.0646469,20.0018207 99.4980409,18.3382829 99.4980409,16.1706904 C99.4980409,13.9815482 99.050394,12.3611099 98.156684,11.3099012 C97.262446,10.2586925 96.1575818,9.73308808 94.843147,9.73308808 C93.377737,9.73308808 92.1894669,10.2933823 91.2793924,11.4150221 C90.36879,12.5366618 89.9132249,14.1865339 89.9132249,16.3646384 C89.9132249,18.2200219 90.3064995,19.7721316 91.0930488,21.02307 M97.6203524,8.03486036 C98.138208,8.35810705 98.7257445,8.92418296 99.3840176,9.73308808 L99.3840176,0.982300893 L102.19448,0.982300893 L102.19448,24.8242408 L99.5629708,24.8242408 L99.5629708,22.4138192 C98.8835822,23.4818472 98.0790848,24.2534345 97.1515901,24.7275296 C96.2235675,25.2016248 95.1609341,25.4386723 93.963162,25.4386723 C92.032157,25.4386723 90.3598159,24.6276648 88.9466666,23.0045985 C87.5329894,21.3820578 86.8266787,19.2223494 86.8266787,16.5265246 C86.8266787,14.003098 87.4712268,11.8171094 88.760323,9.96750763 C90.0494193,8.11790585 91.8912116,7.19336776 94.2867558,7.19336776 C95.6138598,7.19336776 96.7245308,7.47404049 97.6203524,8.03486036" id="Fill-11"></path>
                    </g>
                    <g id="logo-img">
                        <path d="M14.9432228,0.0681183266 C6.69026177,0.0681183266 -0.000158365633,6.72962814 -0.000158365633,14.9469269 C-0.000158365633,23.1642256 6.69026177,29.8252099 14.9432228,29.8252099 C21.3501685,29.8252099 26.8153665,25.8106437 28.9395775,20.1698575 C28.9976449,20.011125 29.029318,19.8392524 29.029318,19.6605469 C29.029318,18.8363992 28.3589035,18.1688817 27.5311792,18.1688817 C26.8892705,18.1688817 26.3413254,18.570969 26.1280596,19.1365193 C24.4282685,23.6477817 20.0568491,26.8592244 14.9316093,26.8592244 C8.32934608,26.8592244 2.97711555,21.529596 2.97711555,14.9558622 C2.97711555,8.38265389 8.32934608,3.05302556 14.9316093,3.05302556 C20.0557934,3.05302556 24.4272127,6.26341706 26.1275318,10.7736282 C26.3402696,11.3402297 26.8802964,11.7465219 27.522733,11.7465219 C28.3504574,11.7465219 29.0208719,11.0784787 29.0208719,10.2548567 C29.0208719,10.0703695 28.9992286,9.88220316 28.9379939,9.71926581 C26.8127271,4.0805821 21.3485848,0.0681183266 14.9432228,0.0681183266 Z" id="Fill-13" fill="#2196F3"></path>
                        <path d="M28.3806524,13.4644072 C27.5534559,13.4644072 26.8825135,14.1324504 26.8825135,14.9560724 C26.8825135,15.7796945 27.5534559,16.4477376 28.3806524,16.4477376 C29.2078489,16.4477376 29.8787913,15.7796945 29.8787913,14.9560724 C29.8787913,14.1324504 29.2078489,13.4644072 28.3806524,13.4644072 Z" id="Fill-16" fill="#E91E63"></path>
                    </g>
                </g>
            </g>
        </g>
    </g>
</svg>