<?xml version="1.0" encoding="UTF-8"?>
<svg width="214px" height="48px" viewBox="0 0 214 48" version="1.1" xmlns="http://www.w3.org/2000/svg" xmlns:xlink="http://www.w3.org/1999/xlink">
    <!-- Generator: Sketch 42 (36781) - http://www.bohemiancoding.com/sketch -->
    <title>Page 1</title>
    <desc>Created with Sketch.</desc>
    <defs>
        <polygon id="path-1" points="44.8489128 0.472615385 0 0.472615385 0 47.0769231 44.8489128 47.0769231"></polygon>
    </defs>
    <g id="ui" stroke="none" stroke-width="1" fill="none" fill-rule="evenodd">
        <g id="A4" transform="translate(-359.000000, -597.000000)">
            <g id="Page-1" transform="translate(359.000000, 597.000000)">
                <path d="M71.6402496,22.7320615 C73.9174291,22.7320615 75.7199675,22.2594462 77.0460359,21.3132923 C78.3721043,20.3671385 79.0351385,18.6622154 79.0351385,16.1957538 C79.0351385,13.5446769 78.1078051,11.7372923 76.2531385,10.7745231 C75.259959,10.2686769 73.9338906,10.0148308 72.2740188,10.0148308 L60.4125658,10.0148308 L60.4125658,22.7320615 L71.6402496,22.7320615 Z M55.4183179,5.68283077 L72.1770786,5.68283077 C74.9371299,5.68283077 77.2124803,6.09729231 79.0040444,6.92436923 C82.4042667,8.51206154 84.1052923,11.4419077 84.1052923,15.7139077 C84.1052923,17.9440615 83.6498564,19.7680615 82.7371556,21.1868308 C81.8253692,22.6046769 80.5486855,23.7456 78.9098479,24.6068308 C80.3484034,25.1976 81.4321214,25.9748308 82.1600872,26.9376 C82.888053,27.8994462 83.2931897,29.4622154 83.3773265,31.6240615 L83.5529162,36.6142154 C83.6032154,38.0329846 83.7202752,39.0880615 83.9040957,39.7812923 C84.2049761,40.9628308 84.7408906,41.7234462 85.5100103,42.0612923 L85.5100103,42.8966769 L79.3872325,42.8966769 C79.218959,42.5763692 79.0863521,42.1619077 78.9848393,41.6551385 C78.8851556,41.1492923 78.8010188,40.1699077 78.7342581,38.7169846 L78.4333778,32.5102154 C78.3190615,30.0779077 77.4493436,28.4486769 75.8233094,27.6206769 C74.8978051,27.1656 73.4418735,26.9376 71.4591726,26.9376 L60.4125658,26.9376 L60.4125658,42.8966769 L55.4183179,42.8966769 L55.4183179,5.68283077 Z" id="Fill-1" fill="#FFFFFF"></path>
                <path d="M109.554831,27.1654154 C109.371925,25.1891077 108.949412,23.6097231 108.285463,22.4281846 C107.058164,20.2331077 105.007788,19.1346462 102.138908,19.1346462 C100.081215,19.1346462 98.3554974,19.8906462 96.9608393,21.4017231 C95.5680103,22.9137231 94.8290701,24.8346462 94.7467624,27.1654154 L109.554831,27.1654154 Z M107.937027,16.5121846 C109.715788,17.4168 111.071121,18.5863385 112.002113,20.0208 C112.900181,21.3897231 113.498284,22.9848 113.799164,24.8088 C114.065292,26.0595692 114.197899,28.0515692 114.197899,30.7875692 L94.6461641,30.7875692 C94.7293863,33.5484923 95.3686427,35.7629538 96.5639333,37.4309538 C97.7601385,39.0989538 99.6102325,39.9334154 102.116959,39.9334154 C104.458156,39.9334154 106.325626,39.1441846 107.720284,37.5666462 C108.501292,36.6500308 109.052754,35.5894154 109.379241,34.3848 L113.821113,34.3848 C113.704053,35.3817231 113.315378,36.4921846 112.654173,37.7161846 C111.992968,38.9411077 111.255856,39.9417231 110.441925,40.7189538 C109.079275,42.0694154 107.394711,42.9814154 105.385489,43.4540308 C104.306344,43.7235692 103.086361,43.8592615 101.724626,43.8592615 C98.3984803,43.8592615 95.5808137,42.6306462 93.2688821,40.1734154 C90.957865,37.7161846 89.8018991,34.2758769 89.8018991,29.8506462 C89.8018991,25.4928 90.9670103,21.9555692 93.2944889,19.2361846 C95.6228821,16.5168 98.6664376,15.1571077 102.424241,15.1571077 C104.319147,15.1571077 106.157352,15.6094154 107.937027,16.5121846 L107.937027,16.5121846 Z" id="Fill-3" fill="#FFFFFF"></path>
                <path d="M137.676626,17.2093846 C139.576104,18.6955385 140.718352,21.2543077 141.103369,24.8847692 L136.711797,24.8847692 C136.442925,23.2130769 135.832019,21.8247692 134.879079,20.718 C133.925224,19.6121538 132.395215,19.0583077 130.286309,19.0583077 C127.407369,19.0583077 125.349677,20.4761538 124.111403,23.3090769 C123.308446,25.1478462 122.907882,27.4167692 122.907882,30.1158462 C122.907882,32.8306154 123.475805,35.1170769 124.614395,36.9724615 C125.751156,38.8278462 127.541805,39.7555385 129.984515,39.7555385 C131.858386,39.7555385 133.343583,39.1795385 134.43919,38.0266154 C135.534797,36.8746154 136.292027,35.298 136.711797,33.2958462 L141.103369,33.2958462 C140.600378,36.8930769 139.346557,39.5238462 137.339164,41.1863077 C135.331771,42.8506154 132.761942,43.6823077 129.633335,43.6823077 C126.119711,43.6823077 123.317591,42.3853846 121.226062,39.7933846 C119.133617,37.2013846 118.088309,33.9632308 118.088309,30.078 C118.088309,25.3158462 119.23513,21.6087692 121.527856,18.9576923 C123.818754,16.3056923 126.737933,14.9801538 130.286309,14.9801538 C133.314318,14.9801538 135.778976,15.7232308 137.676626,17.2093846" id="Fill-5" fill="#FFFFFF"></path>
                <path d="M162.292204,36.5043692 C163.392384,34.2188308 163.942931,31.6757538 163.942931,28.8760615 C163.942931,26.3459077 163.546025,24.2883692 162.751298,22.7025231 C161.49382,20.2056 159.326384,18.9576 156.248991,18.9576 C153.518204,18.9576 151.53276,20.0200615 150.293572,22.1459077 C149.05164,24.2717538 148.431589,26.8351385 148.431589,29.8379077 C148.431589,32.7216 149.05164,35.1252923 150.293572,37.0480615 C151.53276,38.9708308 153.503572,39.9326769 156.199606,39.9326769 C159.160854,39.9326769 161.192025,38.7899077 162.292204,36.5043692 M165.096153,18.4729846 C167.473016,20.8019077 168.661905,24.2274462 168.661905,28.7486769 C168.661905,33.1194462 167.613854,36.7305231 165.520495,39.5819077 C163.427136,42.4332923 160.177811,43.8594462 155.776179,43.8594462 C152.103426,43.8594462 149.18882,42.5985231 147.029615,40.0757538 C144.86858,37.5529846 143.789435,34.1662154 143.789435,29.9126769 C143.789435,25.3572923 144.92711,21.7296 147.202461,19.0296 C149.47964,16.3305231 152.536914,14.9800615 156.373367,14.9800615 C159.812914,14.9800615 162.721119,16.1440615 165.096153,18.4729846" id="Fill-7" fill="#FFFFFF"></path>
                <path d="M174.332905,15.7648615 L178.623879,15.7648615 L178.623879,20.4522462 C178.975974,19.5393231 179.837461,18.4297846 181.21017,17.1208615 C182.582879,15.8119385 184.162273,15.1574769 185.953837,15.1574769 C186.037059,15.1574769 186.178811,15.1657846 186.380008,15.1824 C186.581204,15.1999385 186.923238,15.2331692 187.408854,15.2839385 L187.408854,20.0968615 C187.140897,20.0470154 186.894888,20.0128615 186.668085,19.9962462 C186.44311,19.9796308 186.196187,19.9704 185.92823,19.9704 C183.652879,19.9704 181.903384,20.7088615 180.682486,22.1876308 C179.460674,23.6654769 178.850683,25.3667077 178.850683,27.2913231 L178.850683,42.8968615 L174.332905,42.8968615 L174.332905,15.7648615 Z" id="Fill-9" fill="#FFFFFF"></path>
                <path d="M196.009185,36.9437538 C197.22368,38.9034462 199.172544,39.8819077 201.853031,39.8819077 C203.933586,39.8819077 205.643757,38.9745231 206.984458,37.1588308 C208.325159,35.3431385 208.99368,32.7382154 208.99368,29.3440615 C208.99368,25.9157538 208.30321,23.3772923 206.92227,21.7314462 C205.540415,20.0846769 203.833903,19.2612923 201.801817,19.2612923 C199.538356,19.2612923 197.703809,20.1391385 196.296347,21.8957538 C194.888885,23.6523692 194.186526,26.2360615 194.186526,29.6477538 C194.186526,32.5526769 194.793774,34.9840615 196.009185,36.9437538 M206.093706,16.6009846 C206.892091,17.1086769 207.802048,17.9948308 208.818091,19.2612923 L208.818091,5.55636923 L213.160279,5.55636923 L213.160279,42.8966769 L209.095193,42.8966769 L209.095193,39.1222154 C208.044398,40.7939077 206.803381,42.0012923 205.368484,42.7452923 C203.934501,43.4874462 202.293834,43.8594462 200.44374,43.8594462 C197.459629,43.8594462 194.876082,42.5892923 192.692185,40.0462154 C190.508287,37.5049846 189.418168,34.1228308 189.418168,29.9016 C189.418168,25.9489846 190.413176,22.5252923 192.405937,19.6286769 C194.396868,16.7320615 197.242885,15.2837538 200.943988,15.2837538 C202.99345,15.2837538 204.710022,15.7231385 206.093706,16.6009846" id="Fill-11" fill="#FFFFFF"></path>
                <g id="Group-15" transform="translate(0.000000, 0.450646)">
                    <mask id="mask-2" fill="white">
                        <use xlink:href="#path-1"></use>
                    </mask>
                    <g id="Clip-14"></g>
                    <path d="M44.7080752,15.5873538 C41.4239983,6.7572 32.9828872,0.471969231 23.0858444,0.471969231 C10.3363829,0.471969231 -0.000548717948,10.9055077 -0.000548717948,23.7750462 C-0.000548717948,36.6445846 10.3363829,47.0772 23.0858444,47.0772 C32.9856308,47.0772 41.4285709,40.7892 44.7108188,31.9544308 C44.8004427,31.7052 44.8489128,31.4365846 44.8489128,31.1568923 C44.8489128,29.8664308 43.8127504,28.8205846 42.5342376,28.8205846 C41.5419726,28.8205846 40.6960325,29.4510462 40.3668017,30.3362769 C37.7402718,37.4024308 30.9864684,42.4313538 23.0693829,42.4313538 C12.8687162,42.4313538 4.60045128,34.0848923 4.60045128,23.7888923 C4.60045128,13.4928923 12.8687162,5.14735385 23.0693829,5.14735385 C30.9855538,5.14735385 37.7393573,10.1744308 40.3658872,17.2396615 L40.3658872,17.2396615 C40.6942034,18.1258154 41.5282547,18.7618154 42.5214342,18.7618154 C43.799947,18.7618154 44.8361094,17.7159692 44.8361094,16.4264308 C44.8361094,16.1375077 44.8031863,15.8421231 44.7080752,15.5873538" id="Fill-13" fill="#368ACB" mask="url(#mask-2)"></path>
                </g>
                <path d="M46.1611718,24.2397231 C46.1611718,22.9492615 45.1250094,21.9034154 43.8474111,21.9034154 C42.5679838,21.9034154 41.5318214,22.9492615 41.5318214,24.2397231 C41.5318214,25.5292615 42.5679838,26.5760308 43.8474111,26.5760308 C45.1250094,26.5760308 46.1611718,25.5292615 46.1611718,24.2397231" id="Fill-16" fill="#D8265E"></path>
            </g>
        </g>
    </g>
</svg>